<svg version="1.2" xmlns="http://www.w3.org/2000/svg" viewBox="0 0 1700 300" width="170" height="30">
	<title>rm division2</title>
	<style>
		.s0 { fill: #000000 } 
	</style>
	<path id="RM DIVISION" class="s0" aria-label="RM DIVISION"  d="m170.1 161.7l21.6 23.7v69.6h-40.8v-60.3l-18-20.1h-65.4v80.4h-40.8v-210h131.7l32.1 32.4v63.6zm-102.6-82.5v61.8h72.3l10.5-10.5v-40.8l-10.5-10.5zm161.7 175.8v-210h37.8l62.4 135.6h0.6l62.7-135.6h37.8v210h-39.3v-127.8h-0.6l-48.3 98.4h-25.2l-48-98.4h-0.6v127.8zm319.5 0v-210h117.3l31.5 31.5v147l-31.5 31.5zm17.3-15.6h92.2l21.9-21.9v-135.3l-21.9-21.6h-92.2zm181 15.6v-210h17.4v210zm126 0l-72.7-210h18l64.5 190.8h0.7l64.1-190.8h18l-72.5 210zm128.7 0v-210h17.4v210zm91.5 0l-26.2-26.1v-15.9h17.2v9.9l16.1 16.5h74.2l16.5-17.1v-51l-16.5-16.5h-80.8l-26-25.8v-57.9l26-26.1h85.8l26.2 26.1v16.2h-17.2v-10.5l-16.5-16.2h-70.8l-16.5 16.2v46.2l16.5 16.2h80.8l26 26.1v63l-26.7 26.7zm161.4 0v-210h17.4v210zm98.4 0l-31.5-31.5v-147l31.5-31.5h92.4l31.5 31.5v147l-31.5 31.5zm7.8-15.6h76.8l21.9-21.9v-135.3l-21.9-21.6h-76.8l-21.9 21.6v135.3zm164.1 15.6v-210h17.4l114 181.5h0.6v-181.5h16.5v210h-17.4l-114-181.8h-0.6v181.8z"/>
</svg>